<?xml version="1.0" encoding="UTF-8" standalone="no"?><!DOCTYPE svg PUBLIC "-//W3C//DTD SVG 1.1//EN" "http://www.w3.org/Graphics/SVG/1.1/DTD/svg11.dtd"><svg width="100%" height="100%" viewBox="0 0 1250 209" version="1.1" xmlns="http://www.w3.org/2000/svg" xmlns:xlink="http://www.w3.org/1999/xlink" xml:space="preserve" xmlns:serif="http://www.serif.com/" style="fill-rule:evenodd;clip-rule:evenodd;stroke-linejoin:round;stroke-miterlimit:2;"><text x="249.089px" y="154.36px" style="font-family:'AmericanTypewriter-Bold', 'American Typewriter', serif;font-weight:700;font-size:150px;fill:#fff;">LENZ  FY</text><path d="M736.991,80.704c2.706,-0 4.058,1.884 4.058,5.652l0,43.623c0,4.928 0.918,7.392 2.754,7.392c0.386,-0 1.087,-0.121 2.101,-0.363c1.015,-0.241 1.86,-0.362 2.536,-0.362c4.058,0 6.087,2.512 6.087,7.536c0,6.667 -2.85,10 -8.55,10c-0.966,0 -3.672,-0.241 -8.116,-0.724c-2.706,-0.29 -5.797,-0.435 -9.276,-0.435c-1.739,-0 -4.299,0.193 -7.681,0.58c-3.381,0.386 -5.893,0.579 -7.536,0.579c-2.609,0 -4.734,-0.893 -6.377,-2.681c-1.642,-1.787 -2.464,-4.082 -2.464,-6.884c0,-5.507 2.319,-8.261 6.957,-8.261c-0,0 1.256,0.29 3.768,0.87c0.387,0.096 0.725,0.145 1.015,0.145c1.739,-0 2.608,-2.706 2.608,-8.116l0,-23.479c0,-5.507 -0.821,-8.26 -2.463,-8.26c-0.29,-0 -1.16,0.241 -2.609,0.724c-0.966,0.193 -1.739,0.29 -2.319,0.29c-4.638,0 -6.957,-2.705 -6.957,-8.116c0,-2.898 0.822,-5.241 2.464,-7.029c1.643,-1.787 3.817,-2.681 6.522,-2.681c1.063,-0 2.609,0.145 4.638,0.435c3.381,0.483 6.087,0.724 8.116,0.724c1.642,0 3.768,-0.193 6.376,-0.579c2.609,-0.387 4.058,-0.58 4.348,-0.58Z" style="fill:#fff;fill-rule:nonzero;"/></svg>